# xmcd
#
# Track frame offsets:
#	150
#	13111
#	28436
#	44582
#	45029
#	58580
#	59177
#	80257
#	93462
#	109809
#	119305
#	120070
#	131246
#	147081
#	167402
#	188535
#	207693
#
# Disc length: 2932 seconds
#
# Revision: 1
# Processed by: cddbd v1.5.2PL0 Copyright (c) Steve Scherf et al.
# Submitted via: audiograbber 1.83.01
#
DISCID=ed0b7211
DTITLE=Hillcrest - Hillcrest Pure Country 80
DYEAR=2016
DGENRE=
TTITLE0=Les Of Me -Bonita Mercer
TTITLE1=I Belive In Me -Darnell Miller
TTITLE2=Make It Rain -Lacy Jay Syler
TTITLE3=Radio Liner Happy Day -Dave Sheriff 
TTITLE4=Happy Day -Dave Sheriff
TTITLE5=Radio Liner My Babys Love (Jessies Song) -Clelia Adams
TTITLE6=My Babys Love (Jessies Song) -Clelia Adams
TTITLE7=Some Days Takes All Night -Andy Martin
TTITLE8=You´re My Man -Rachel Summerell
TTITLE9=The Wall -Branson McPhee
TTITLE10=Radio Liner Mama Needs A New Tiara Tonight -Shery Kennedy
TTITLE11=Mama Needs A New Tiara Tonight -Shery Kennedy
TTITLE12=Burry Me With My Six Strings -Blake Emmons
TTITLE13=I Chose You -Margie Singleton
TTITLE14=Making Payments -Leon Ashley 
TTITLE15=A Certain Touch -Tyson Ashley
TTITLE16=You Got That Right -Brian Dolph
EXTD=
EXTT0=
EXTT1=
EXTT2=
EXTT3=
EXTT4=
EXTT5=
EXTT6=
EXTT7=
EXTT8=
EXTT9=
EXTT10=
EXTT11=
EXTT12=
EXTT13=
EXTT14=
EXTT15=
EXTT16=
PLAYORDER=
